<?xml version="1.0" encoding="UTF-8" standalone="no"?>
<svg width="240" height="80" viewBox="0 0 240 80" xmlns="http://www.w3.org/2000/svg">
  <defs>
    <linearGradient id="primaryGradient" x1="0%" y1="0%" x2="100%" y2="0%">
      <stop offset="0%" stop-color="#8B5CF6" />
      <stop offset="100%" stop-color="#63E0FF" />
    </linearGradient>
    
    <linearGradient id="secondaryGradient" x1="0%" y1="0%" x2="100%" y2="100%">
      <stop offset="0%" stop-color="#8B5CF6" />
      <stop offset="50%" stop-color="#6366F1" />
      <stop offset="100%" stop-color="#63E0FF" />
    </linearGradient>
    
    <filter id="glow" x="-20%" y="-20%" width="140%" height="140%">
      <feGaussianBlur stdDeviation="2" result="blur" />
      <feComposite in="SourceGraphic" in2="blur" operator="over" />
    </filter>
    
    <filter id="innerShadow" x="-20%" y="-20%" width="140%" height="140%">
      <feOffset dx="0" dy="1" />
      <feGaussianBlur stdDeviation="2" result="offset-blur" />
      <feComposite operator="out" in="SourceGraphic" in2="offset-blur" result="inverse" />
      <feFlood flood-color="black" flood-opacity="0.4" result="color" />
      <feComposite operator="in" in="color" in2="inverse" result="shadow" />
      <feComposite operator="over" in="shadow" in2="SourceGraphic" />
    </filter>
    
    <clipPath id="circleClip">
      <circle cx="40" cy="40" r="30" />
    </clipPath>
  </defs>
  
  <!-- Main Logo Group -->
  <g filter="url(#glow)">
    <!-- Background Circle with Pulse Animation -->
    <circle cx="40" cy="40" r="30" fill="#1A1A2E" stroke="url(#primaryGradient)" stroke-width="2" class="pulse-circle" />
    
    <!-- Sound Wave Background in Circle -->
    <g clip-path="url(#circleClip)">
      <!-- Sound Wave Lines -->
      <path d="M5,40 Q15,20 25,40 Q35,60 45,40 Q55,20 65,40 Q75,60 85,40" stroke="url(#primaryGradient)" stroke-width="2" stroke-opacity="0.3" fill="none">
        <animate attributeName="d" 
                 values="M5,40 Q15,20 25,40 Q35,60 45,40 Q55,20 65,40 Q75,60 85,40;
                         M5,45 Q15,25 25,45 Q35,65 45,45 Q55,25 65,45 Q75,65 85,45;
                         M5,40 Q15,20 25,40 Q35,60 45,40 Q55,20 65,40 Q75,60 85,40" 
                 dur="4s" 
                 repeatCount="indefinite" />
      </path>
      
      <path d="M5,50 Q15,30 25,50 Q35,70 45,50 Q55,30 65,50 Q75,70 85,50" stroke="url(#primaryGradient)" stroke-width="2" stroke-opacity="0.3" fill="none">
        <animate attributeName="d" 
                 values="M5,50 Q15,30 25,50 Q35,70 45,50 Q55,30 65,50 Q75,70 85,50;
                         M5,45 Q15,25 25,45 Q35,65 45,45 Q55,25 65,45 Q75,65 85,45;
                         M5,50 Q15,30 25,50 Q35,70 45,50 Q55,30 65,50 Q75,70 85,50" 
                 dur="3s" 
                 repeatCount="indefinite" />
      </path>
      
      <path d="M5,30 Q15,10 25,30 Q35,50 45,30 Q55,10 65,30 Q75,50 85,30" stroke="url(#primaryGradient)" stroke-width="2" stroke-opacity="0.3" fill="none">
        <animate attributeName="d" 
                 values="M5,30 Q15,10 25,30 Q35,50 45,30 Q55,10 65,30 Q75,50 85,30;
                         M5,35 Q15,15 25,35 Q35,55 45,35 Q55,15 65,35 Q75,55 85,35;
                         M5,30 Q15,10 25,30 Q35,50 45,30 Q55,10 65,30 Q75,50 85,30" 
                 dur="5s" 
                 repeatCount="indefinite" />
      </path>
    </g>
    
    <!-- G Letter with 3D Effect -->
    <g filter="url(#innerShadow)">
      <path d="M40,20 C28.954,20 20,28.954 20,40 C20,51.046 28.954,60 40,60 C46.365,60 52.015,56.89 55.563,52 L45,52 L45,40 L60,40 L60,42 C60,52.493 51.493,65 40,65 C26.193,65 15,53.807 15,40 C15,26.193 26.193,15 40,15 C47.423,15 54.037,18.431 58.385,23.833 L53.5,28.717 C50.301,24.764 45.439,22 40,22 C30.059,22 22,30.059 22,40 C22,49.941 30.059,58 40,58 C44.098,58 47.861,56.359 50.639,53.682 L50.639,48 L40,48 L40,40 L58,40 L58,50.681 C54.392,56.212 47.702,60 40,60 C28.954,60 20,51.046 20,40 C20,28.954 28.954,20 40,20 Z" fill="url(#secondaryGradient)" />
    </g>
  </g>
  
  <!-- VIBES Text with Modern Typography -->
  <g transform="translate(85, 45)">
    <!-- V -->
    <path d="M0,15 L10,-15 L15,-15 L25,15 L19,15 L12,-8 L5,15 Z" fill="url(#primaryGradient)" filter="url(#glow)" />
    
    <!-- I -->
    <path d="M30,-15 L36,-15 L36,15 L30,15 Z" fill="url(#primaryGradient)" filter="url(#glow)" />
    
    <!-- B -->
    <path d="M42,-15 L55,-15 C61,-15 65,-11 65,-5 C65,-1 62,1 59,2 C63,3 66,7 66,11 C66,17 61,15 55,15 L42,15 Z M48,-9 L48,0 L54,0 C56,0 58,-2 58,-4.5 C58,-7 56,-9 54,-9 Z M48,6 L48,9 L54,9 C56,9 59,8 59,7.5 C59,7 56,6 54,6 Z" fill="url(#primaryGradient)" filter="url(#glow)" />
    
    <!-- E -->
    <path d="M72,-15 L90,-15 L90,-9 L78,-9 L78,-3 L88,-3 L88,3 L78,3 L78,9 L90,9 L90,15 L72,15 Z" fill="url(#primaryGradient)" filter="url(#glow)" />
    
    <!-- S -->
    <path d="M96,-15 L112,-15 L112,-9 L102,-9 L102,-5 L110,-5 C116,-5 120,-1 120,5 C120,11 116,15 110,15 L94,15 L94,9 L108,9 C110,9 114,9 114,5 C114,1 110,1 108,1 L100,1 C96,1 94,-1 94,-5 C94,-11 98,-15 104,-15 Z" fill="url(#primaryGradient)" filter="url(#glow)" />
  </g>
  
  <!-- TOKEN Text -->
  <text x="85" y="65" font-family="Arial, sans-serif" font-size="14" font-weight="bold" fill="#63E0FF" filter="url(#glow)">TOKEN</text>
  
  <!-- Decorative Elements -->
  <g stroke="url(#primaryGradient)" stroke-width="1.5" stroke-linecap="round" opacity="0.7">
    <!-- Top Sound Wave -->
    <path d="M85,15 Q90,5 95,15 Q100,25 105,15 Q110,5 115,15 Q120,25 125,15 Q130,5 135,15" />
    
    <!-- Bottom Sound Wave -->
    <path d="M150,15 Q155,5 160,15 Q165,25 170,15 Q175,5 180,15 Q185,25 190,15 Q195,5 200,15" />
  </g>
  
  <!-- Animated Particles -->
  <g>
    <circle cx="210" cy="25" r="2" fill="#8B5CF6" opacity="0.7">
      <animate attributeName="cy" values="25;15;25" dur="3s" repeatCount="indefinite" />
      <animate attributeName="opacity" values="0.7;0.3;0.7" dur="3s" repeatCount="indefinite" />
    </circle>
    
    <circle cx="220" cy="20" r="1.5" fill="#63E0FF" opacity="0.5">
      <animate attributeName="cy" values="20;30;20" dur="4s" repeatCount="indefinite" />
      <animate attributeName="opacity" values="0.5;0.8;0.5" dur="4s" repeatCount="indefinite" />
    </circle>
    
    <circle cx="230" cy="30" r="2" fill="#8B5CF6" opacity="0.6">
      <animate attributeName="cy" values="30;20;30" dur="5s" repeatCount="indefinite" />
      <animate attributeName="opacity" values="0.6;0.2;0.6" dur="5s" repeatCount="indefinite" />
    </circle>
  </g>
  
  <style>
    @keyframes pulse {
      0% { stroke-width: 2; stroke-opacity: 0.8; }
      50% { stroke-width: 3; stroke-opacity: 1; }
      100% { stroke-width: 2; stroke-opacity: 0.8; }
    }
    
    .pulse-circle {
      animation: pulse 3s infinite ease-in-out;
    }
  </style>
</svg>
