<?xml version="1.0" encoding="UTF-8" standalone="no"?>
<svg width="240" height="80" viewBox="0 0 240 80" xmlns="http://www.w3.org/2000/svg">
  <defs>
    <linearGradient id="primaryGradient" x1="0%" y1="0%" x2="100%" y2="0%">
      <stop offset="0%" stop-color="#8B5CF6" />
      <stop offset="100%" stop-color="#63E0FF" />
    </linearGradient>
    
    <linearGradient id="secondaryGradient" x1="0%" y1="0%" x2="100%" y2="100%">
      <stop offset="0%" stop-color="#8B5CF6" />
      <stop offset="50%" stop-color="#6366F1" />
      <stop offset="100%" stop-color="#63E0FF" />
    </linearGradient>
  </defs>
  
  <!-- Main Logo Group -->
  <g>
    <!-- Background Circle -->
    <circle cx="40" cy="40" r="30" fill="#1A1A2E" stroke="url(#primaryGradient)" stroke-width="2" />
    
    <!-- G Letter -->
    <path d="M40,20 C28.954,20 20,28.954 20,40 C20,51.046 28.954,60 40,60 C46.365,60 52.015,56.89 55.563,52 L45,52 L45,40 L60,40 L60,42 C60,52.493 51.493,65 40,65 C26.193,65 15,53.807 15,40 C15,26.193 26.193,15 40,15 C47.423,15 54.037,18.431 58.385,23.833 L53.5,28.717 C50.301,24.764 45.439,22 40,22 C30.059,22 22,30.059 22,40 C22,49.941 30.059,58 40,58 C44.098,58 47.861,56.359 50.639,53.682 L50.639,48 L40,48 L40,40 L58,40 L58,50.681 C54.392,56.212 47.702,60 40,60 C28.954,60 20,51.046 20,40 C20,28.954 28.954,20 40,20 Z" fill="url(#secondaryGradient)" />
  </g>
  
  <!-- VIBES Text -->
  <g transform="translate(85, 45)">
    <!-- V - Proper V shape -->
    <path d="M2,-15 L12,15 L18,15 L28,-15 L22,-15 L15,8 L8,-15 Z" fill="url(#primaryGradient)" />
    
    <!-- I -->
    <path d="M33,-15 L39,-15 L39,15 L33,15 Z" fill="url(#primaryGradient)" />
    
    <!-- B -->
    <path d="M45,-15 L58,-15 C64,-15 68,-11 68,-5 C68,-1 65,1 62,2 C66,3 69,7 69,11 C69,17 64,15 58,15 L45,15 Z M51,-9 L51,0 L57,0 C59,0 61,-2 61,-4.5 C61,-7 59,-9 57,-9 Z M51,6 L51,9 L57,9 C59,9 62,8 62,7.5 C62,7 59,6 57,6 Z" fill="url(#primaryGradient)" />
    
    <!-- E -->
    <path d="M75,-15 L93,-15 L93,-9 L81,-9 L81,-3 L91,-3 L91,3 L81,3 L81,9 L93,9 L93,15 L75,15 Z" fill="url(#primaryGradient)" />
    
    <!-- S -->
    <path d="M99,-15 L115,-15 L115,-9 L105,-9 L105,-5 L113,-5 C119,-5 123,-1 123,5 C123,11 119,15 113,15 L97,15 L97,9 L111,9 C113,9 117,9 117,5 C117,1 113,1 111,1 L103,1 C99,1 97,-1 97,-5 C97,-11 101,-15 107,-15 Z" fill="url(#primaryGradient)" />
  </g>
  
  <!-- TOKEN Text -->
  <text x="85" y="65" font-family="Arial, sans-serif" font-size="14" font-weight="bold" fill="#63E0FF">TOKEN</text>
  
  <!-- Decorative Elements -->
  <g stroke="url(#primaryGradient)" stroke-width="1.5" stroke-linecap="round" opacity="0.7">
    <!-- Top Sound Wave -->
    <path d="M85,15 Q90,5 95,15 Q100,25 105,15 Q110,5 115,15 Q120,25 125,15 Q130,5 135,15" />
    
    <!-- Bottom Sound Wave -->
    <path d="M150,15 Q155,5 160,15 Q165,25 170,15 Q175,5 180,15 Q185,25 190,15 Q195,5 200,15" />
  </g>
</svg>
