<?xml version="1.0" encoding="UTF-8" standalone="no"?>
<svg width="200" height="200" viewBox="0 0 200 200" xmlns="http://www.w3.org/2000/svg">
  <defs>
    <linearGradient id="gradient" x1="0%" y1="0%" x2="100%" y2="0%">
      <stop offset="0%" stop-color="#8B5CF6" />
      <stop offset="100%" stop-color="#63E0FF" />
    </linearGradient>
  </defs>
  <g fill="url(#gradient)">
    <path d="M100 20C55.8 20 20 55.8 20 100s35.8 80 80 80 80-35.8 80-80S144.2 20 100 20zm0 140c-33.1 0-60-26.9-60-60s26.9-60 60-60 60 26.9 60 60-26.9 60-60 60z"/>
    <path d="M100 60c-22.1 0-40 17.9-40 40s17.9 40 40 40 40-17.9 40-40-17.9-40-40-40zm0 60c-11 0-20-9-20-20s9-20 20-20 20 9 20 20-9 20-20 20z"/>
    <path d="M150 70l-30 30 30 30V70z"/>
    <path d="M50 70v60l30-30-30-30z"/>
  </g>
</svg>
